<svg id="Слой_1" data-name="Слой 1" xmlns="http://www.w3.org/2000/svg" viewBox="0 0 150 190"><defs><style>.cls-1{fill-rule:evenodd;}</style></defs><title>Монтажная область 12</title><path class="cls-1" d="M112.77,112.31l-5,35-65.3.65-5.6-34.09-8.67-7.68-.13-6.06,93.78-.13-.58,7.62ZM61.83,118c0-6.39-8.33-6.36-8.29-.4,0,1.83.11,17.06.13,18.74,0,5.76,8.21,5.58,8.17-.44C61.83,134.28,61.85,120.12,61.83,118Zm17.39,0c0-6.39-8.33-6.36-8.29-.4,0,1.83.11,17.06.13,18.74,0,5.76,8.21,5.58,8.17-.44C79.22,134.28,79.24,120.12,79.22,118Zm17.39,0c0-6.39-8.33-6.36-8.29-.4,0,1.83.11,17.06.13,18.74,0,5.76,8.21,5.58,8.17-.44C96.61,134.28,96.63,120.12,96.61,118ZM78.94,81.67C74.22,77,80.44,70.51,85,75l20,19.79L92,94.77ZM57.32,94.82l-12.86,0c5.43-5.44,18.67-18.65,19.73-19.73,4.65-4.72,11.16,1.5,6.71,6Z"/></svg>