<svg id="Слой_1" data-name="Слой 1" xmlns="http://www.w3.org/2000/svg" viewBox="0 0 150 190"><defs><style>.cls-1{fill-rule:evenodd;}</style></defs><title>Монтажная область 11</title><path class="cls-1" d="M128.08,89.33,120.5,86.6l-5.81,5.57.25-8-7.09-3.81,7.73-2.25L117,70.15l4.52,6.66,8-1.09-4.93,6.36Zm-23.78-22-2.25,7.72L98.24,68l-8,.25,5.57-5.81L93,54.86l7.25,3.5,6.36-4.93-1.09,8,6.66,4.53ZM80.61,65.94,73.77,61.7l-6.84,4.24,1.91-7.82-6.14-5.2,8-.59,3-7.45,3,7.45,8,.59-6.14,5.2ZM50.4,68l-3.8,7.09-2.25-7.72-7.92-1.43,6.65-4.53-1.09-8,6.37,4.93,7.24-3.5-2.72,7.57,5.57,5.81ZM33.71,84.13l.25,8L28.14,86.6l-7.57,2.73,3.5-7.25-4.93-6.36,8,1.09,4.53-6.66,1.43,7.92,7.73,2.25ZM90.5,103.07c6,.81,9,3.29,9,8.52,0,7.63-12.3,12.46-22.38,12.46-12.15,0-27.42-5.69-27.42-15.57,0-12.4,22.6-12.81,20.6-27.76C79.51,82.29,84,86.75,84,93.81a11.66,11.66,0,0,1-6.18,10.55l3,4S88.24,104.32,90.5,103.07ZM77.27,129.88c14.36,0,25.6-5.56,27.8-16.19,10.16,2.31,15.64,12.51,8,22.35-14.5,18.66-61.88,15.7-75,.09-6.61-7.84-4.79-21.47,5.71-24.25C47.5,125.19,62.89,129.88,77.27,129.88Z"/></svg>